<svg xmlns="http://www.w3.org/2000/svg" viewBox="0 0 800 600" role="img" aria-label="Diagram plate for DIE / BLOCK / SIGNAL">
<rect width="800" height="600" fill="#f3f0e8"/>
<rect x="150" y="110" width="330" height="290" fill="none" stroke="#171715"/>
<rect x="168" y="128" width="120" height="84" fill="#5a4a7a" fill-opacity="0.08" stroke="#5a4a7a" stroke-width="1"/>
<rect x="300" y="128" width="162" height="52" fill="#5a4a7a" fill-opacity="0.12" stroke="#5a4a7a" stroke-width="1"/>
<rect x="300" y="192" width="78" height="96" fill="#5a4a7a" fill-opacity="0.17" stroke="#5a4a7a" stroke-width="1"/>
<rect x="390" y="192" width="72" height="62" fill="#5a4a7a" fill-opacity="0.22" stroke="#5a4a7a" stroke-width="1"/>
<rect x="168" y="224" width="120" height="62" fill="#5a4a7a" fill-opacity="0.08" stroke="#5a4a7a" stroke-width="1"/>
<rect x="168" y="298" width="294" height="88" fill="#5a4a7a" fill-opacity="0.12" stroke="#5a4a7a" stroke-width="1"/>
<rect x="390" y="266" width="72" height="20" fill="#5a4a7a" fill-opacity="0.17" stroke="#5a4a7a" stroke-width="1"/>
<rect x="158" y="404" width="12" height="9" fill="#171715"/>
<rect x="181" y="404" width="12" height="9" fill="#171715"/>
<rect x="204" y="404" width="12" height="9" fill="#171715"/>
<rect x="227" y="404" width="12" height="9" fill="#171715"/>
<rect x="250" y="404" width="12" height="9" fill="#171715"/>
<rect x="273" y="404" width="12" height="9" fill="#171715"/>
<rect x="296" y="404" width="12" height="9" fill="#171715"/>
<rect x="319" y="404" width="12" height="9" fill="#171715"/>
<rect x="342" y="404" width="12" height="9" fill="#171715"/>
<rect x="365" y="404" width="12" height="9" fill="#171715"/>
<rect x="388" y="404" width="12" height="9" fill="#171715"/>
<rect x="411" y="404" width="12" height="9" fill="#171715"/>
<rect x="434" y="404" width="12" height="9" fill="#171715"/>
<rect x="457" y="404" width="12" height="9" fill="#171715"/>
<polyline points="520,254.4 524,264.6 528,273.8 532,281.2 536,286.4 540,289.1 544,289.6 548,288.2 552,285.4 556,281.9 560,278.5 564,275.8 568,274.2 572,274.2 576,275.6 580,278.2 584,281.6 588,285.1 592,288.0 596,289.6 600,289.3 604,286.8 608,281.8 612,274.6 616,265.6 620,255.4 624,244.8 628,234.6 632,225.5 636,218.3 640,213.3 644,210.7 648,210.4 652,212.0 656,214.9 660,218.4 664,221.8 668,224.4 672,225.8 676,225.8 680,224.3" fill="none" stroke="#a33327" stroke-width="1.4"/>
<line x1="520" y1="250" x2="680" y2="250" stroke="#7f7b73" stroke-dasharray="2 6"/>
<line x1="480" y1="250" x2="520" y2="250" stroke="#171715" stroke-width="1"/>
<text x="520" y="330" font-family="Courier New, monospace" font-size="10" fill="#514e48">READ OUT AS SOUND</text>
<g font-family="Courier New, monospace" font-size="11" fill="#514e48"><text x="80" y="70">DIE / BLOCK / SIGNAL</text><text x="720" y="560" text-anchor="end">DIE 01</text></g>
</svg>
