<svg xmlns="http://www.w3.org/2000/svg" viewBox="0 0 800 600" role="img" aria-label="Diagram plate for LABOR / HOUR / EXCHANGE">
<rect width="800" height="600" fill="#f3f0e8"/>
<circle cx="262" cy="300" r="132" fill="#3f6b5f" fill-opacity=".10" stroke="#3f6b5f" stroke-width="1.5"/>
<circle cx="262" cy="300" r="112" fill="none" stroke="#3f6b5f" stroke-width="1" stroke-opacity=".7"/>
<circle cx="262" cy="300" r="60" fill="none" stroke="#171715" stroke-width="1"/>
<line x1="394.0" y1="300.0" x2="402.0" y2="300.0" stroke="#3f6b5f" stroke-width="1" stroke-opacity=".55"/>
<line x1="393.7" y1="308.6" x2="401.7" y2="309.2" stroke="#3f6b5f" stroke-width="1" stroke-opacity=".55"/>
<line x1="392.9" y1="317.2" x2="400.8" y2="318.3" stroke="#3f6b5f" stroke-width="1" stroke-opacity=".55"/>
<line x1="391.5" y1="325.8" x2="399.3" y2="327.3" stroke="#3f6b5f" stroke-width="1" stroke-opacity=".55"/>
<line x1="389.5" y1="334.2" x2="397.2" y2="336.2" stroke="#3f6b5f" stroke-width="1" stroke-opacity=".55"/>
<line x1="387.0" y1="342.4" x2="394.6" y2="345.0" stroke="#3f6b5f" stroke-width="1" stroke-opacity=".55"/>
<line x1="384.0" y1="350.5" x2="391.3" y2="353.6" stroke="#3f6b5f" stroke-width="1" stroke-opacity=".55"/>
<line x1="380.4" y1="358.4" x2="387.6" y2="361.9" stroke="#3f6b5f" stroke-width="1" stroke-opacity=".55"/>
<line x1="376.3" y1="366.0" x2="383.2" y2="370.0" stroke="#3f6b5f" stroke-width="1" stroke-opacity=".55"/>
<line x1="371.8" y1="373.3" x2="378.4" y2="377.8" stroke="#3f6b5f" stroke-width="1" stroke-opacity=".55"/>
<line x1="366.7" y1="380.4" x2="373.1" y2="385.2" stroke="#3f6b5f" stroke-width="1" stroke-opacity=".55"/>
<line x1="361.2" y1="387.0" x2="367.3" y2="392.3" stroke="#3f6b5f" stroke-width="1" stroke-opacity=".55"/>
<line x1="355.3" y1="393.3" x2="361.0" y2="399.0" stroke="#3f6b5f" stroke-width="1" stroke-opacity=".55"/>
<line x1="349.0" y1="399.2" x2="354.3" y2="405.3" stroke="#3f6b5f" stroke-width="1" stroke-opacity=".55"/>
<line x1="342.4" y1="404.7" x2="347.2" y2="411.1" stroke="#3f6b5f" stroke-width="1" stroke-opacity=".55"/>
<line x1="335.3" y1="409.8" x2="339.8" y2="416.4" stroke="#3f6b5f" stroke-width="1" stroke-opacity=".55"/>
<line x1="328.0" y1="414.3" x2="332.0" y2="421.2" stroke="#3f6b5f" stroke-width="1" stroke-opacity=".55"/>
<line x1="320.4" y1="418.4" x2="323.9" y2="425.6" stroke="#3f6b5f" stroke-width="1" stroke-opacity=".55"/>
<line x1="312.5" y1="422.0" x2="315.6" y2="429.3" stroke="#3f6b5f" stroke-width="1" stroke-opacity=".55"/>
<line x1="304.4" y1="425.0" x2="307.0" y2="432.6" stroke="#3f6b5f" stroke-width="1" stroke-opacity=".55"/>
<line x1="296.2" y1="427.5" x2="298.2" y2="435.2" stroke="#3f6b5f" stroke-width="1" stroke-opacity=".55"/>
<line x1="287.8" y1="429.5" x2="289.3" y2="437.3" stroke="#3f6b5f" stroke-width="1" stroke-opacity=".55"/>
<line x1="279.2" y1="430.9" x2="280.3" y2="438.8" stroke="#3f6b5f" stroke-width="1" stroke-opacity=".55"/>
<line x1="270.6" y1="431.7" x2="271.2" y2="439.7" stroke="#3f6b5f" stroke-width="1" stroke-opacity=".55"/>
<line x1="262.0" y1="432.0" x2="262.0" y2="440.0" stroke="#3f6b5f" stroke-width="1" stroke-opacity=".55"/>
<line x1="253.4" y1="431.7" x2="252.8" y2="439.7" stroke="#3f6b5f" stroke-width="1" stroke-opacity=".55"/>
<line x1="244.8" y1="430.9" x2="243.7" y2="438.8" stroke="#3f6b5f" stroke-width="1" stroke-opacity=".55"/>
<line x1="236.2" y1="429.5" x2="234.7" y2="437.3" stroke="#3f6b5f" stroke-width="1" stroke-opacity=".55"/>
<line x1="227.8" y1="427.5" x2="225.8" y2="435.2" stroke="#3f6b5f" stroke-width="1" stroke-opacity=".55"/>
<line x1="219.6" y1="425.0" x2="217.0" y2="432.6" stroke="#3f6b5f" stroke-width="1" stroke-opacity=".55"/>
<line x1="211.5" y1="422.0" x2="208.4" y2="429.3" stroke="#3f6b5f" stroke-width="1" stroke-opacity=".55"/>
<line x1="203.6" y1="418.4" x2="200.1" y2="425.6" stroke="#3f6b5f" stroke-width="1" stroke-opacity=".55"/>
<line x1="196.0" y1="414.3" x2="192.0" y2="421.2" stroke="#3f6b5f" stroke-width="1" stroke-opacity=".55"/>
<line x1="188.7" y1="409.8" x2="184.2" y2="416.4" stroke="#3f6b5f" stroke-width="1" stroke-opacity=".55"/>
<line x1="181.6" y1="404.7" x2="176.8" y2="411.1" stroke="#3f6b5f" stroke-width="1" stroke-opacity=".55"/>
<line x1="175.0" y1="399.2" x2="169.7" y2="405.3" stroke="#3f6b5f" stroke-width="1" stroke-opacity=".55"/>
<line x1="168.7" y1="393.3" x2="163.0" y2="399.0" stroke="#3f6b5f" stroke-width="1" stroke-opacity=".55"/>
<line x1="162.8" y1="387.0" x2="156.7" y2="392.3" stroke="#3f6b5f" stroke-width="1" stroke-opacity=".55"/>
<line x1="157.3" y1="380.4" x2="150.9" y2="385.2" stroke="#3f6b5f" stroke-width="1" stroke-opacity=".55"/>
<line x1="152.2" y1="373.3" x2="145.6" y2="377.8" stroke="#3f6b5f" stroke-width="1" stroke-opacity=".55"/>
<line x1="147.7" y1="366.0" x2="140.8" y2="370.0" stroke="#3f6b5f" stroke-width="1" stroke-opacity=".55"/>
<line x1="143.6" y1="358.4" x2="136.4" y2="361.9" stroke="#3f6b5f" stroke-width="1" stroke-opacity=".55"/>
<line x1="140.0" y1="350.5" x2="132.7" y2="353.6" stroke="#3f6b5f" stroke-width="1" stroke-opacity=".55"/>
<line x1="137.0" y1="342.4" x2="129.4" y2="345.0" stroke="#3f6b5f" stroke-width="1" stroke-opacity=".55"/>
<line x1="134.5" y1="334.2" x2="126.8" y2="336.2" stroke="#3f6b5f" stroke-width="1" stroke-opacity=".55"/>
<line x1="132.5" y1="325.8" x2="124.7" y2="327.3" stroke="#3f6b5f" stroke-width="1" stroke-opacity=".55"/>
<line x1="131.1" y1="317.2" x2="123.2" y2="318.3" stroke="#3f6b5f" stroke-width="1" stroke-opacity=".55"/>
<line x1="130.3" y1="308.6" x2="122.3" y2="309.2" stroke="#3f6b5f" stroke-width="1" stroke-opacity=".55"/>
<line x1="130.0" y1="300.0" x2="122.0" y2="300.0" stroke="#3f6b5f" stroke-width="1" stroke-opacity=".55"/>
<line x1="130.3" y1="291.4" x2="122.3" y2="290.8" stroke="#3f6b5f" stroke-width="1" stroke-opacity=".55"/>
<line x1="131.1" y1="282.8" x2="123.2" y2="281.7" stroke="#3f6b5f" stroke-width="1" stroke-opacity=".55"/>
<line x1="132.5" y1="274.2" x2="124.7" y2="272.7" stroke="#3f6b5f" stroke-width="1" stroke-opacity=".55"/>
<line x1="134.5" y1="265.8" x2="126.8" y2="263.8" stroke="#3f6b5f" stroke-width="1" stroke-opacity=".55"/>
<line x1="137.0" y1="257.6" x2="129.4" y2="255.0" stroke="#3f6b5f" stroke-width="1" stroke-opacity=".55"/>
<line x1="140.0" y1="249.5" x2="132.7" y2="246.4" stroke="#3f6b5f" stroke-width="1" stroke-opacity=".55"/>
<line x1="143.6" y1="241.6" x2="136.4" y2="238.1" stroke="#3f6b5f" stroke-width="1" stroke-opacity=".55"/>
<line x1="147.7" y1="234.0" x2="140.8" y2="230.0" stroke="#3f6b5f" stroke-width="1" stroke-opacity=".55"/>
<line x1="152.2" y1="226.7" x2="145.6" y2="222.2" stroke="#3f6b5f" stroke-width="1" stroke-opacity=".55"/>
<line x1="157.3" y1="219.6" x2="150.9" y2="214.8" stroke="#3f6b5f" stroke-width="1" stroke-opacity=".55"/>
<line x1="162.8" y1="213.0" x2="156.7" y2="207.7" stroke="#3f6b5f" stroke-width="1" stroke-opacity=".55"/>
<line x1="168.7" y1="206.7" x2="163.0" y2="201.0" stroke="#3f6b5f" stroke-width="1" stroke-opacity=".55"/>
<line x1="175.0" y1="200.8" x2="169.7" y2="194.7" stroke="#3f6b5f" stroke-width="1" stroke-opacity=".55"/>
<line x1="181.6" y1="195.3" x2="176.8" y2="188.9" stroke="#3f6b5f" stroke-width="1" stroke-opacity=".55"/>
<line x1="188.7" y1="190.2" x2="184.2" y2="183.6" stroke="#3f6b5f" stroke-width="1" stroke-opacity=".55"/>
<line x1="196.0" y1="185.7" x2="192.0" y2="178.8" stroke="#3f6b5f" stroke-width="1" stroke-opacity=".55"/>
<line x1="203.6" y1="181.6" x2="200.1" y2="174.4" stroke="#3f6b5f" stroke-width="1" stroke-opacity=".55"/>
<line x1="211.5" y1="178.0" x2="208.4" y2="170.7" stroke="#3f6b5f" stroke-width="1" stroke-opacity=".55"/>
<line x1="219.6" y1="175.0" x2="217.0" y2="167.4" stroke="#3f6b5f" stroke-width="1" stroke-opacity=".55"/>
<line x1="227.8" y1="172.5" x2="225.8" y2="164.8" stroke="#3f6b5f" stroke-width="1" stroke-opacity=".55"/>
<line x1="236.2" y1="170.5" x2="234.7" y2="162.7" stroke="#3f6b5f" stroke-width="1" stroke-opacity=".55"/>
<line x1="244.8" y1="169.1" x2="243.7" y2="161.2" stroke="#3f6b5f" stroke-width="1" stroke-opacity=".55"/>
<line x1="253.4" y1="168.3" x2="252.8" y2="160.3" stroke="#3f6b5f" stroke-width="1" stroke-opacity=".55"/>
<line x1="262.0" y1="168.0" x2="262.0" y2="160.0" stroke="#3f6b5f" stroke-width="1" stroke-opacity=".55"/>
<line x1="270.6" y1="168.3" x2="271.2" y2="160.3" stroke="#3f6b5f" stroke-width="1" stroke-opacity=".55"/>
<line x1="279.2" y1="169.1" x2="280.3" y2="161.2" stroke="#3f6b5f" stroke-width="1" stroke-opacity=".55"/>
<line x1="287.8" y1="170.5" x2="289.3" y2="162.7" stroke="#3f6b5f" stroke-width="1" stroke-opacity=".55"/>
<line x1="296.2" y1="172.5" x2="298.2" y2="164.8" stroke="#3f6b5f" stroke-width="1" stroke-opacity=".55"/>
<line x1="304.4" y1="175.0" x2="307.0" y2="167.4" stroke="#3f6b5f" stroke-width="1" stroke-opacity=".55"/>
<line x1="312.5" y1="178.0" x2="315.6" y2="170.7" stroke="#3f6b5f" stroke-width="1" stroke-opacity=".55"/>
<line x1="320.4" y1="181.6" x2="323.9" y2="174.4" stroke="#3f6b5f" stroke-width="1" stroke-opacity=".55"/>
<line x1="328.0" y1="185.7" x2="332.0" y2="178.8" stroke="#3f6b5f" stroke-width="1" stroke-opacity=".55"/>
<line x1="335.3" y1="190.2" x2="339.8" y2="183.6" stroke="#3f6b5f" stroke-width="1" stroke-opacity=".55"/>
<line x1="342.4" y1="195.3" x2="347.2" y2="188.9" stroke="#3f6b5f" stroke-width="1" stroke-opacity=".55"/>
<line x1="349.0" y1="200.8" x2="354.3" y2="194.7" stroke="#3f6b5f" stroke-width="1" stroke-opacity=".55"/>
<line x1="355.3" y1="206.7" x2="361.0" y2="201.0" stroke="#3f6b5f" stroke-width="1" stroke-opacity=".55"/>
<line x1="361.2" y1="213.0" x2="367.3" y2="207.7" stroke="#3f6b5f" stroke-width="1" stroke-opacity=".55"/>
<line x1="366.7" y1="219.6" x2="373.1" y2="214.8" stroke="#3f6b5f" stroke-width="1" stroke-opacity=".55"/>
<line x1="371.8" y1="226.7" x2="378.4" y2="222.2" stroke="#3f6b5f" stroke-width="1" stroke-opacity=".55"/>
<line x1="376.3" y1="234.0" x2="383.2" y2="230.0" stroke="#3f6b5f" stroke-width="1" stroke-opacity=".55"/>
<line x1="380.4" y1="241.6" x2="387.6" y2="238.1" stroke="#3f6b5f" stroke-width="1" stroke-opacity=".55"/>
<line x1="384.0" y1="249.5" x2="391.3" y2="246.4" stroke="#3f6b5f" stroke-width="1" stroke-opacity=".55"/>
<line x1="387.0" y1="257.6" x2="394.6" y2="255.0" stroke="#3f6b5f" stroke-width="1" stroke-opacity=".55"/>
<line x1="389.5" y1="265.8" x2="397.2" y2="263.8" stroke="#3f6b5f" stroke-width="1" stroke-opacity=".55"/>
<line x1="391.5" y1="274.2" x2="399.3" y2="272.7" stroke="#3f6b5f" stroke-width="1" stroke-opacity=".55"/>
<line x1="392.9" y1="282.8" x2="400.8" y2="281.7" stroke="#3f6b5f" stroke-width="1" stroke-opacity=".55"/>
<line x1="393.7" y1="291.4" x2="401.7" y2="290.8" stroke="#3f6b5f" stroke-width="1" stroke-opacity=".55"/>
<line x1="324.1" y1="301.1" x2="367.2" y2="301.9" stroke="#171715" stroke-width="1" stroke-opacity=".5"/>
<line x1="325.6" y1="325.4" x2="353.8" y2="336.2" stroke="#171715" stroke-width="1" stroke-opacity=".5"/>
<line x1="306.0" y1="346.9" x2="331.0" y2="377.9" stroke="#171715" stroke-width="1" stroke-opacity=".5"/>
<line x1="288.9" y1="358.7" x2="306.6" y2="400.0" stroke="#171715" stroke-width="1" stroke-opacity=".5"/>
<line x1="265.6" y1="366.3" x2="267.2" y2="403.1" stroke="#171715" stroke-width="1" stroke-opacity=".5"/>
<line x1="230.7" y1="362.8" x2="213.5" y2="397.6" stroke="#171715" stroke-width="1" stroke-opacity=".5"/>
<line x1="214.7" y1="345.5" x2="185.7" y2="370.3" stroke="#171715" stroke-width="1" stroke-opacity=".5"/>
<line x1="194.1" y1="328.5" x2="162.3" y2="340.8" stroke="#171715" stroke-width="1" stroke-opacity=".5"/>
<line x1="191.5" y1="300.4" x2="162.2" y2="300.5" stroke="#171715" stroke-width="1" stroke-opacity=".5"/>
<line x1="196.5" y1="270.2" x2="164.9" y2="257.1" stroke="#171715" stroke-width="1" stroke-opacity=".5"/>
<line x1="212.9" y1="252.9" x2="191.3" y2="228.9" stroke="#171715" stroke-width="1" stroke-opacity=".5"/>
<line x1="238.1" y1="235.8" x2="227.6" y2="204.7" stroke="#171715" stroke-width="1" stroke-opacity=".5"/>
<line x1="260.2" y1="234.9" x2="259.2" y2="199.5" stroke="#171715" stroke-width="1" stroke-opacity=".5"/>
<line x1="289.9" y1="238.7" x2="305.9" y2="204.8" stroke="#171715" stroke-width="1" stroke-opacity=".5"/>
<line x1="309.4" y1="257.2" x2="341.8" y2="227.6" stroke="#171715" stroke-width="1" stroke-opacity=".5"/>
<line x1="327.7" y1="275.5" x2="359.3" y2="262.0" stroke="#171715" stroke-width="1" stroke-opacity=".5"/>
<circle cx="262" cy="300" r="4" fill="#171715"/>
<circle cx="538" cy="300" r="132" fill="#3f6b5f" fill-opacity=".10" stroke="#3f6b5f" stroke-width="1.5"/>
<circle cx="538" cy="300" r="112" fill="none" stroke="#3f6b5f" stroke-width="1" stroke-opacity=".7"/>
<circle cx="538" cy="300" r="60" fill="none" stroke="#171715" stroke-width="1"/>
<line x1="670.0" y1="300.0" x2="678.0" y2="300.0" stroke="#3f6b5f" stroke-width="1" stroke-opacity=".55"/>
<line x1="669.5" y1="311.5" x2="677.5" y2="312.2" stroke="#3f6b5f" stroke-width="1" stroke-opacity=".55"/>
<line x1="668.0" y1="322.9" x2="675.9" y2="324.3" stroke="#3f6b5f" stroke-width="1" stroke-opacity=".55"/>
<line x1="665.5" y1="334.2" x2="673.2" y2="336.2" stroke="#3f6b5f" stroke-width="1" stroke-opacity=".55"/>
<line x1="662.0" y1="345.1" x2="669.6" y2="347.9" stroke="#3f6b5f" stroke-width="1" stroke-opacity=".55"/>
<line x1="657.6" y1="355.8" x2="664.9" y2="359.2" stroke="#3f6b5f" stroke-width="1" stroke-opacity=".55"/>
<line x1="652.3" y1="366.0" x2="659.2" y2="370.0" stroke="#3f6b5f" stroke-width="1" stroke-opacity=".55"/>
<line x1="646.1" y1="375.7" x2="652.7" y2="380.3" stroke="#3f6b5f" stroke-width="1" stroke-opacity=".55"/>
<line x1="639.1" y1="384.8" x2="645.2" y2="390.0" stroke="#3f6b5f" stroke-width="1" stroke-opacity=".55"/>
<line x1="631.3" y1="393.3" x2="637.0" y2="399.0" stroke="#3f6b5f" stroke-width="1" stroke-opacity=".55"/>
<line x1="622.8" y1="401.1" x2="628.0" y2="407.2" stroke="#3f6b5f" stroke-width="1" stroke-opacity=".55"/>
<line x1="613.7" y1="408.1" x2="618.3" y2="414.7" stroke="#3f6b5f" stroke-width="1" stroke-opacity=".55"/>
<line x1="604.0" y1="414.3" x2="608.0" y2="421.2" stroke="#3f6b5f" stroke-width="1" stroke-opacity=".55"/>
<line x1="593.8" y1="419.6" x2="597.2" y2="426.9" stroke="#3f6b5f" stroke-width="1" stroke-opacity=".55"/>
<line x1="583.1" y1="424.0" x2="585.9" y2="431.6" stroke="#3f6b5f" stroke-width="1" stroke-opacity=".55"/>
<line x1="572.2" y1="427.5" x2="574.2" y2="435.2" stroke="#3f6b5f" stroke-width="1" stroke-opacity=".55"/>
<line x1="560.9" y1="430.0" x2="562.3" y2="437.9" stroke="#3f6b5f" stroke-width="1" stroke-opacity=".55"/>
<line x1="549.5" y1="431.5" x2="550.2" y2="439.5" stroke="#3f6b5f" stroke-width="1" stroke-opacity=".55"/>
<line x1="538.0" y1="432.0" x2="538.0" y2="440.0" stroke="#3f6b5f" stroke-width="1" stroke-opacity=".55"/>
<line x1="526.5" y1="431.5" x2="525.8" y2="439.5" stroke="#3f6b5f" stroke-width="1" stroke-opacity=".55"/>
<line x1="515.1" y1="430.0" x2="513.7" y2="437.9" stroke="#3f6b5f" stroke-width="1" stroke-opacity=".55"/>
<line x1="503.8" y1="427.5" x2="501.8" y2="435.2" stroke="#3f6b5f" stroke-width="1" stroke-opacity=".55"/>
<line x1="492.9" y1="424.0" x2="490.1" y2="431.6" stroke="#3f6b5f" stroke-width="1" stroke-opacity=".55"/>
<line x1="482.2" y1="419.6" x2="478.8" y2="426.9" stroke="#3f6b5f" stroke-width="1" stroke-opacity=".55"/>
<line x1="472.0" y1="414.3" x2="468.0" y2="421.2" stroke="#3f6b5f" stroke-width="1" stroke-opacity=".55"/>
<line x1="462.3" y1="408.1" x2="457.7" y2="414.7" stroke="#3f6b5f" stroke-width="1" stroke-opacity=".55"/>
<line x1="453.2" y1="401.1" x2="448.0" y2="407.2" stroke="#3f6b5f" stroke-width="1" stroke-opacity=".55"/>
<line x1="444.7" y1="393.3" x2="439.0" y2="399.0" stroke="#3f6b5f" stroke-width="1" stroke-opacity=".55"/>
<line x1="436.9" y1="384.8" x2="430.8" y2="390.0" stroke="#3f6b5f" stroke-width="1" stroke-opacity=".55"/>
<line x1="429.9" y1="375.7" x2="423.3" y2="380.3" stroke="#3f6b5f" stroke-width="1" stroke-opacity=".55"/>
<line x1="423.7" y1="366.0" x2="416.8" y2="370.0" stroke="#3f6b5f" stroke-width="1" stroke-opacity=".55"/>
<line x1="418.4" y1="355.8" x2="411.1" y2="359.2" stroke="#3f6b5f" stroke-width="1" stroke-opacity=".55"/>
<line x1="414.0" y1="345.1" x2="406.4" y2="347.9" stroke="#3f6b5f" stroke-width="1" stroke-opacity=".55"/>
<line x1="410.5" y1="334.2" x2="402.8" y2="336.2" stroke="#3f6b5f" stroke-width="1" stroke-opacity=".55"/>
<line x1="408.0" y1="322.9" x2="400.1" y2="324.3" stroke="#3f6b5f" stroke-width="1" stroke-opacity=".55"/>
<line x1="406.5" y1="311.5" x2="398.5" y2="312.2" stroke="#3f6b5f" stroke-width="1" stroke-opacity=".55"/>
<line x1="406.0" y1="300.0" x2="398.0" y2="300.0" stroke="#3f6b5f" stroke-width="1" stroke-opacity=".55"/>
<line x1="406.5" y1="288.5" x2="398.5" y2="287.8" stroke="#3f6b5f" stroke-width="1" stroke-opacity=".55"/>
<line x1="408.0" y1="277.1" x2="400.1" y2="275.7" stroke="#3f6b5f" stroke-width="1" stroke-opacity=".55"/>
<line x1="410.5" y1="265.8" x2="402.8" y2="263.8" stroke="#3f6b5f" stroke-width="1" stroke-opacity=".55"/>
<line x1="414.0" y1="254.9" x2="406.4" y2="252.1" stroke="#3f6b5f" stroke-width="1" stroke-opacity=".55"/>
<line x1="418.4" y1="244.2" x2="411.1" y2="240.8" stroke="#3f6b5f" stroke-width="1" stroke-opacity=".55"/>
<line x1="423.7" y1="234.0" x2="416.8" y2="230.0" stroke="#3f6b5f" stroke-width="1" stroke-opacity=".55"/>
<line x1="429.9" y1="224.3" x2="423.3" y2="219.7" stroke="#3f6b5f" stroke-width="1" stroke-opacity=".55"/>
<line x1="436.9" y1="215.2" x2="430.8" y2="210.0" stroke="#3f6b5f" stroke-width="1" stroke-opacity=".55"/>
<line x1="444.7" y1="206.7" x2="439.0" y2="201.0" stroke="#3f6b5f" stroke-width="1" stroke-opacity=".55"/>
<line x1="453.2" y1="198.9" x2="448.0" y2="192.8" stroke="#3f6b5f" stroke-width="1" stroke-opacity=".55"/>
<line x1="462.3" y1="191.9" x2="457.7" y2="185.3" stroke="#3f6b5f" stroke-width="1" stroke-opacity=".55"/>
<line x1="472.0" y1="185.7" x2="468.0" y2="178.8" stroke="#3f6b5f" stroke-width="1" stroke-opacity=".55"/>
<line x1="482.2" y1="180.4" x2="478.8" y2="173.1" stroke="#3f6b5f" stroke-width="1" stroke-opacity=".55"/>
<line x1="492.9" y1="176.0" x2="490.1" y2="168.4" stroke="#3f6b5f" stroke-width="1" stroke-opacity=".55"/>
<line x1="503.8" y1="172.5" x2="501.8" y2="164.8" stroke="#3f6b5f" stroke-width="1" stroke-opacity=".55"/>
<line x1="515.1" y1="170.0" x2="513.7" y2="162.1" stroke="#3f6b5f" stroke-width="1" stroke-opacity=".55"/>
<line x1="526.5" y1="168.5" x2="525.8" y2="160.5" stroke="#3f6b5f" stroke-width="1" stroke-opacity=".55"/>
<line x1="538.0" y1="168.0" x2="538.0" y2="160.0" stroke="#3f6b5f" stroke-width="1" stroke-opacity=".55"/>
<line x1="549.5" y1="168.5" x2="550.2" y2="160.5" stroke="#3f6b5f" stroke-width="1" stroke-opacity=".55"/>
<line x1="560.9" y1="170.0" x2="562.3" y2="162.1" stroke="#3f6b5f" stroke-width="1" stroke-opacity=".55"/>
<line x1="572.2" y1="172.5" x2="574.2" y2="164.8" stroke="#3f6b5f" stroke-width="1" stroke-opacity=".55"/>
<line x1="583.1" y1="176.0" x2="585.9" y2="168.4" stroke="#3f6b5f" stroke-width="1" stroke-opacity=".55"/>
<line x1="593.8" y1="180.4" x2="597.2" y2="173.1" stroke="#3f6b5f" stroke-width="1" stroke-opacity=".55"/>
<line x1="604.0" y1="185.7" x2="608.0" y2="178.8" stroke="#3f6b5f" stroke-width="1" stroke-opacity=".55"/>
<line x1="613.7" y1="191.9" x2="618.3" y2="185.3" stroke="#3f6b5f" stroke-width="1" stroke-opacity=".55"/>
<line x1="622.8" y1="198.9" x2="628.0" y2="192.8" stroke="#3f6b5f" stroke-width="1" stroke-opacity=".55"/>
<line x1="631.3" y1="206.7" x2="637.0" y2="201.0" stroke="#3f6b5f" stroke-width="1" stroke-opacity=".55"/>
<line x1="639.1" y1="215.2" x2="645.2" y2="210.0" stroke="#3f6b5f" stroke-width="1" stroke-opacity=".55"/>
<line x1="646.1" y1="224.3" x2="652.7" y2="219.7" stroke="#3f6b5f" stroke-width="1" stroke-opacity=".55"/>
<line x1="652.3" y1="234.0" x2="659.2" y2="230.0" stroke="#3f6b5f" stroke-width="1" stroke-opacity=".55"/>
<line x1="657.6" y1="244.2" x2="664.9" y2="240.8" stroke="#3f6b5f" stroke-width="1" stroke-opacity=".55"/>
<line x1="662.0" y1="254.9" x2="669.6" y2="252.1" stroke="#3f6b5f" stroke-width="1" stroke-opacity=".55"/>
<line x1="665.5" y1="265.8" x2="673.2" y2="263.8" stroke="#3f6b5f" stroke-width="1" stroke-opacity=".55"/>
<line x1="668.0" y1="277.1" x2="675.9" y2="275.7" stroke="#3f6b5f" stroke-width="1" stroke-opacity=".55"/>
<line x1="669.5" y1="288.5" x2="677.5" y2="287.8" stroke="#3f6b5f" stroke-width="1" stroke-opacity=".55"/>
<line x1="601.2" y1="305.8" x2="645.8" y2="309.3" stroke="#171715" stroke-width="1" stroke-opacity=".5"/>
<line x1="605.9" y1="326.1" x2="630.2" y2="334.8" stroke="#171715" stroke-width="1" stroke-opacity=".5"/>
<line x1="581.8" y1="344.5" x2="611.1" y2="370.8" stroke="#171715" stroke-width="1" stroke-opacity=".5"/>
<line x1="570.2" y1="361.9" x2="584.5" y2="396.7" stroke="#171715" stroke-width="1" stroke-opacity=".5"/>
<line x1="535.3" y1="367.1" x2="533.6" y2="404.2" stroke="#171715" stroke-width="1" stroke-opacity=".5"/>
<line x1="511.0" y1="359.1" x2="494.8" y2="394.7" stroke="#171715" stroke-width="1" stroke-opacity=".5"/>
<line x1="485.9" y1="343.1" x2="459.1" y2="362.8" stroke="#171715" stroke-width="1" stroke-opacity=".5"/>
<line x1="469.7" y1="326.0" x2="446.9" y2="334.8" stroke="#171715" stroke-width="1" stroke-opacity=".5"/>
<line x1="473.3" y1="295.1" x2="429.8" y2="292.6" stroke="#171715" stroke-width="1" stroke-opacity=".5"/>
<line x1="475.3" y1="278.6" x2="438.0" y2="266.1" stroke="#171715" stroke-width="1" stroke-opacity=".5"/>
<line x1="487.1" y1="247.8" x2="469.3" y2="225.1" stroke="#171715" stroke-width="1" stroke-opacity=".5"/>
<line x1="514.9" y1="242.5" x2="502.3" y2="210.7" stroke="#171715" stroke-width="1" stroke-opacity=".5"/>
<line x1="532.1" y1="229.2" x2="529.1" y2="196.0" stroke="#171715" stroke-width="1" stroke-opacity=".5"/>
<line x1="569.2" y1="236.4" x2="580.5" y2="202.8" stroke="#171715" stroke-width="1" stroke-opacity=".5"/>
<line x1="583.6" y1="249.9" x2="609.5" y2="227.6" stroke="#171715" stroke-width="1" stroke-opacity=".5"/>
<line x1="599.9" y1="276.4" x2="627.9" y2="265.2" stroke="#171715" stroke-width="1" stroke-opacity=".5"/>
<circle cx="538" cy="300" r="4" fill="#171715"/>
<line x1="400" y1="132" x2="400" y2="468" stroke="#7f7b73" stroke-dasharray="3 7"/>
<g font-family="Courier New, monospace" font-size="10" fill="#514e48"><text x="262" y="470" text-anchor="middle">OBVERSE</text><text x="538" y="470" text-anchor="middle">REVERSE</text></g>
<g font-family="Courier New, monospace" font-size="11" fill="#514e48"><text x="80" y="70">LABOR / HOUR / EXCHANGE</text><text x="720" y="560" text-anchor="end">COIN 02</text></g>
</svg>
