<svg xmlns="http://www.w3.org/2000/svg" viewBox="0 0 800 600" role="img" aria-label="Diagram plate for CHAPTER / STORY / RELEASE">
<rect width="800" height="600" fill="#f3f0e8"/>
<rect x="150" y="130" width="34" height="26" fill="#b8862f" fill-opacity="0.72" stroke="#b8862f" stroke-width="1"/>
<rect x="196" y="130" width="34" height="26" fill="#b8862f" fill-opacity="0.72" stroke="#b8862f" stroke-width="1"/>
<rect x="242" y="130" width="34" height="26" fill="#b8862f" fill-opacity="0.72" stroke="#b8862f" stroke-width="1"/>
<rect x="288" y="130" width="34" height="26" fill="#b8862f" fill-opacity="0.72" stroke="#b8862f" stroke-width="1"/>
<rect x="334" y="130" width="34" height="26" fill="#b8862f" fill-opacity="0.72" stroke="#b8862f" stroke-width="1"/>
<rect x="380" y="130" width="34" height="26" fill="#b8862f" fill-opacity="0.72" stroke="#b8862f" stroke-width="1"/>
<rect x="426" y="130" width="34" height="26" fill="#b8862f" fill-opacity="0.72" stroke="#b8862f" stroke-width="1"/>
<rect x="472" y="130" width="34" height="26" fill="#b8862f" fill-opacity="0.72" stroke="#b8862f" stroke-width="1"/>
<rect x="518" y="130" width="34" height="26" fill="#b8862f" fill-opacity="0.72" stroke="#b8862f" stroke-width="1"/>
<rect x="564" y="130" width="34" height="26" fill="#b8862f" fill-opacity="0.72" stroke="#b8862f" stroke-width="1"/>
<rect x="610" y="130" width="34" height="26" fill="#b8862f" fill-opacity="0.72" stroke="#b8862f" stroke-width="1"/>
<text x="132" y="148" text-anchor="end" font-family="Courier New, monospace" font-size="10" fill="#514e48">1</text>
<rect x="150" y="168" width="34" height="26" fill="none" fill-opacity="0" stroke="#7f7b73" stroke-width="1"/>
<rect x="196" y="168" width="34" height="26" fill="none" fill-opacity="0" stroke="#7f7b73" stroke-width="1"/>
<rect x="242" y="168" width="34" height="26" fill="none" fill-opacity="0" stroke="#7f7b73" stroke-width="1"/>
<rect x="288" y="168" width="34" height="26" fill="none" fill-opacity="0" stroke="#7f7b73" stroke-width="1"/>
<rect x="334" y="168" width="34" height="26" fill="none" fill-opacity="0" stroke="#7f7b73" stroke-width="1"/>
<rect x="380" y="168" width="34" height="26" fill="none" fill-opacity="0" stroke="#7f7b73" stroke-width="1"/>
<rect x="426" y="168" width="34" height="26" fill="none" fill-opacity="0" stroke="#7f7b73" stroke-width="1"/>
<rect x="472" y="168" width="34" height="26" fill="none" fill-opacity="0" stroke="#7f7b73" stroke-width="1"/>
<rect x="518" y="168" width="34" height="26" fill="none" fill-opacity="0" stroke="#7f7b73" stroke-width="1"/>
<rect x="564" y="168" width="34" height="26" fill="none" fill-opacity="0" stroke="#7f7b73" stroke-width="1"/>
<rect x="610" y="168" width="34" height="26" fill="none" fill-opacity="0" stroke="#7f7b73" stroke-width="1"/>
<text x="132" y="186" text-anchor="end" font-family="Courier New, monospace" font-size="10" fill="#514e48">2</text>
<rect x="150" y="206" width="34" height="26" fill="none" fill-opacity="0" stroke="#7f7b73" stroke-width="1"/>
<rect x="196" y="206" width="34" height="26" fill="none" fill-opacity="0" stroke="#7f7b73" stroke-width="1"/>
<rect x="242" y="206" width="34" height="26" fill="none" fill-opacity="0" stroke="#7f7b73" stroke-width="1"/>
<rect x="288" y="206" width="34" height="26" fill="none" fill-opacity="0" stroke="#7f7b73" stroke-width="1"/>
<rect x="334" y="206" width="34" height="26" fill="none" fill-opacity="0" stroke="#7f7b73" stroke-width="1"/>
<rect x="380" y="206" width="34" height="26" fill="none" fill-opacity="0" stroke="#7f7b73" stroke-width="1"/>
<rect x="426" y="206" width="34" height="26" fill="none" fill-opacity="0" stroke="#7f7b73" stroke-width="1"/>
<rect x="472" y="206" width="34" height="26" fill="none" fill-opacity="0" stroke="#7f7b73" stroke-width="1"/>
<rect x="518" y="206" width="34" height="26" fill="none" fill-opacity="0" stroke="#7f7b73" stroke-width="1"/>
<rect x="564" y="206" width="34" height="26" fill="none" fill-opacity="0" stroke="#7f7b73" stroke-width="1"/>
<rect x="610" y="206" width="34" height="26" fill="none" fill-opacity="0" stroke="#7f7b73" stroke-width="1"/>
<text x="132" y="224" text-anchor="end" font-family="Courier New, monospace" font-size="10" fill="#514e48">3</text>
<rect x="150" y="244" width="34" height="26" fill="none" fill-opacity="0" stroke="#7f7b73" stroke-width="1"/>
<rect x="196" y="244" width="34" height="26" fill="none" fill-opacity="0" stroke="#7f7b73" stroke-width="1"/>
<rect x="242" y="244" width="34" height="26" fill="none" fill-opacity="0" stroke="#7f7b73" stroke-width="1"/>
<rect x="288" y="244" width="34" height="26" fill="none" fill-opacity="0" stroke="#7f7b73" stroke-width="1"/>
<rect x="334" y="244" width="34" height="26" fill="none" fill-opacity="0" stroke="#7f7b73" stroke-width="1"/>
<rect x="380" y="244" width="34" height="26" fill="none" fill-opacity="0" stroke="#7f7b73" stroke-width="1"/>
<rect x="426" y="244" width="34" height="26" fill="none" fill-opacity="0" stroke="#7f7b73" stroke-width="1"/>
<rect x="472" y="244" width="34" height="26" fill="none" fill-opacity="0" stroke="#7f7b73" stroke-width="1"/>
<rect x="518" y="244" width="34" height="26" fill="none" fill-opacity="0" stroke="#7f7b73" stroke-width="1"/>
<rect x="564" y="244" width="34" height="26" fill="none" fill-opacity="0" stroke="#7f7b73" stroke-width="1"/>
<rect x="610" y="244" width="34" height="26" fill="none" fill-opacity="0" stroke="#7f7b73" stroke-width="1"/>
<text x="132" y="262" text-anchor="end" font-family="Courier New, monospace" font-size="10" fill="#514e48">4</text>
<rect x="150" y="282" width="34" height="26" fill="none" fill-opacity="0" stroke="#7f7b73" stroke-width="1"/>
<rect x="196" y="282" width="34" height="26" fill="none" fill-opacity="0" stroke="#7f7b73" stroke-width="1"/>
<rect x="242" y="282" width="34" height="26" fill="none" fill-opacity="0" stroke="#7f7b73" stroke-width="1"/>
<rect x="288" y="282" width="34" height="26" fill="none" fill-opacity="0" stroke="#7f7b73" stroke-width="1"/>
<rect x="334" y="282" width="34" height="26" fill="none" fill-opacity="0" stroke="#7f7b73" stroke-width="1"/>
<rect x="380" y="282" width="34" height="26" fill="none" fill-opacity="0" stroke="#7f7b73" stroke-width="1"/>
<rect x="426" y="282" width="34" height="26" fill="none" fill-opacity="0" stroke="#7f7b73" stroke-width="1"/>
<rect x="472" y="282" width="34" height="26" fill="none" fill-opacity="0" stroke="#7f7b73" stroke-width="1"/>
<rect x="518" y="282" width="34" height="26" fill="none" fill-opacity="0" stroke="#7f7b73" stroke-width="1"/>
<rect x="564" y="282" width="34" height="26" fill="none" fill-opacity="0" stroke="#7f7b73" stroke-width="1"/>
<rect x="610" y="282" width="34" height="26" fill="none" fill-opacity="0" stroke="#7f7b73" stroke-width="1"/>
<text x="132" y="300" text-anchor="end" font-family="Courier New, monospace" font-size="10" fill="#514e48">5</text>
<rect x="150" y="320" width="34" height="26" fill="none" fill-opacity="0" stroke="#7f7b73" stroke-width="1"/>
<rect x="196" y="320" width="34" height="26" fill="none" fill-opacity="0" stroke="#7f7b73" stroke-width="1"/>
<rect x="242" y="320" width="34" height="26" fill="none" fill-opacity="0" stroke="#7f7b73" stroke-width="1"/>
<rect x="288" y="320" width="34" height="26" fill="none" fill-opacity="0" stroke="#7f7b73" stroke-width="1"/>
<rect x="334" y="320" width="34" height="26" fill="none" fill-opacity="0" stroke="#7f7b73" stroke-width="1"/>
<rect x="380" y="320" width="34" height="26" fill="none" fill-opacity="0" stroke="#7f7b73" stroke-width="1"/>
<rect x="426" y="320" width="34" height="26" fill="none" fill-opacity="0" stroke="#7f7b73" stroke-width="1"/>
<rect x="472" y="320" width="34" height="26" fill="none" fill-opacity="0" stroke="#7f7b73" stroke-width="1"/>
<rect x="518" y="320" width="34" height="26" fill="none" fill-opacity="0" stroke="#7f7b73" stroke-width="1"/>
<rect x="564" y="320" width="34" height="26" fill="none" fill-opacity="0" stroke="#7f7b73" stroke-width="1"/>
<rect x="610" y="320" width="34" height="26" fill="none" fill-opacity="0" stroke="#7f7b73" stroke-width="1"/>
<text x="132" y="338" text-anchor="end" font-family="Courier New, monospace" font-size="10" fill="#514e48">6</text>
<rect x="150" y="358" width="34" height="26" fill="none" fill-opacity="0" stroke="#7f7b73" stroke-width="1"/>
<rect x="196" y="358" width="34" height="26" fill="none" fill-opacity="0" stroke="#7f7b73" stroke-width="1"/>
<rect x="242" y="358" width="34" height="26" fill="none" fill-opacity="0" stroke="#7f7b73" stroke-width="1"/>
<rect x="288" y="358" width="34" height="26" fill="none" fill-opacity="0" stroke="#7f7b73" stroke-width="1"/>
<rect x="334" y="358" width="34" height="26" fill="none" fill-opacity="0" stroke="#7f7b73" stroke-width="1"/>
<rect x="380" y="358" width="34" height="26" fill="none" fill-opacity="0" stroke="#7f7b73" stroke-width="1"/>
<rect x="426" y="358" width="34" height="26" fill="none" fill-opacity="0" stroke="#7f7b73" stroke-width="1"/>
<rect x="472" y="358" width="34" height="26" fill="none" fill-opacity="0" stroke="#7f7b73" stroke-width="1"/>
<rect x="518" y="358" width="34" height="26" fill="none" fill-opacity="0" stroke="#7f7b73" stroke-width="1"/>
<rect x="564" y="358" width="34" height="26" fill="none" fill-opacity="0" stroke="#7f7b73" stroke-width="1"/>
<rect x="610" y="358" width="34" height="26" fill="none" fill-opacity="0" stroke="#7f7b73" stroke-width="1"/>
<text x="132" y="376" text-anchor="end" font-family="Courier New, monospace" font-size="10" fill="#514e48">7</text>
<rect x="150" y="396" width="34" height="26" fill="none" fill-opacity="0" stroke="#7f7b73" stroke-width="1"/>
<rect x="196" y="396" width="34" height="26" fill="none" fill-opacity="0" stroke="#7f7b73" stroke-width="1"/>
<rect x="242" y="396" width="34" height="26" fill="none" fill-opacity="0" stroke="#7f7b73" stroke-width="1"/>
<rect x="288" y="396" width="34" height="26" fill="none" fill-opacity="0" stroke="#7f7b73" stroke-width="1"/>
<rect x="334" y="396" width="34" height="26" fill="none" fill-opacity="0" stroke="#7f7b73" stroke-width="1"/>
<rect x="380" y="396" width="34" height="26" fill="none" fill-opacity="0" stroke="#7f7b73" stroke-width="1"/>
<rect x="426" y="396" width="34" height="26" fill="none" fill-opacity="0" stroke="#7f7b73" stroke-width="1"/>
<rect x="472" y="396" width="34" height="26" fill="none" fill-opacity="0" stroke="#7f7b73" stroke-width="1"/>
<rect x="518" y="396" width="34" height="26" fill="none" fill-opacity="0" stroke="#7f7b73" stroke-width="1"/>
<rect x="564" y="396" width="34" height="26" fill="none" fill-opacity="0" stroke="#7f7b73" stroke-width="1"/>
<rect x="610" y="396" width="34" height="26" fill="none" fill-opacity="0" stroke="#7f7b73" stroke-width="1"/>
<text x="132" y="414" text-anchor="end" font-family="Courier New, monospace" font-size="10" fill="#514e48">8</text>
<rect x="150" y="434" width="34" height="26" fill="none" fill-opacity="0" stroke="#7f7b73" stroke-width="1"/>
<rect x="196" y="434" width="34" height="26" fill="none" fill-opacity="0" stroke="#7f7b73" stroke-width="1"/>
<rect x="242" y="434" width="34" height="26" fill="none" fill-opacity="0" stroke="#7f7b73" stroke-width="1"/>
<rect x="288" y="434" width="34" height="26" fill="none" fill-opacity="0" stroke="#7f7b73" stroke-width="1"/>
<rect x="334" y="434" width="34" height="26" fill="none" fill-opacity="0" stroke="#7f7b73" stroke-width="1"/>
<rect x="380" y="434" width="34" height="26" fill="none" fill-opacity="0" stroke="#7f7b73" stroke-width="1"/>
<rect x="426" y="434" width="34" height="26" fill="none" fill-opacity="0" stroke="#7f7b73" stroke-width="1"/>
<rect x="472" y="434" width="34" height="26" fill="none" fill-opacity="0" stroke="#7f7b73" stroke-width="1"/>
<rect x="518" y="434" width="34" height="26" fill="none" fill-opacity="0" stroke="#7f7b73" stroke-width="1"/>
<rect x="564" y="434" width="34" height="26" fill="none" fill-opacity="0" stroke="#7f7b73" stroke-width="1"/>
<rect x="610" y="434" width="34" height="26" fill="none" fill-opacity="0" stroke="#7f7b73" stroke-width="1"/>
<text x="132" y="452" text-anchor="end" font-family="Courier New, monospace" font-size="10" fill="#514e48">9</text>
<line x1="150" y1="168" x2="656" y2="168" stroke="#4a6f88" stroke-width="1.5"/>
<text x="150" y="500" font-family="Courier New, monospace" font-size="11" fill="#514e48">11 OF 99 RELEASED · CHAPTER ONE LIVE</text>
<g font-family="Courier New, monospace" font-size="11" fill="#514e48"><text x="80" y="70">CHAPTER / STORY / RELEASE</text><text x="720" y="560" text-anchor="end">WESTWARD HO</text></g>
</svg>
