<svg xmlns="http://www.w3.org/2000/svg" viewBox="0 0 800 600" role="img" aria-label="Diagram plate for IDEA / CODE / RECORD">
<rect width="800" height="600" fill="#f3f0e8"/>
<rect x="160" y="180" width="118" height="52" fill="none" stroke="#171715"/>
<rect x="330" y="180" width="118" height="52" fill="none" stroke="#171715"/>
<line x1="278" y1="206" x2="330" y2="206" stroke="#2f5d7a" stroke-width="1.5"/>
<circle cx="304" cy="206" r="3" fill="#2f5d7a"/>
<rect x="500" y="180" width="118" height="52" fill="none" stroke="#171715"/>
<line x1="448" y1="206" x2="500" y2="206" stroke="#2f5d7a" stroke-width="1.5"/>
<circle cx="474" cy="206" r="3" fill="#2f5d7a"/>
<line x1="219" y1="232" x2="172" y2="318" stroke="#7f7b73" stroke-width="1"/>
<rect x="158" y="318" width="28" height="20" fill="none" stroke="#7f7b73"/>
<line x1="219" y1="232" x2="210" y2="318" stroke="#7f7b73" stroke-width="1"/>
<rect x="196" y="318" width="28" height="20" fill="none" stroke="#7f7b73"/>
<line x1="219" y1="232" x2="248" y2="318" stroke="#7f7b73" stroke-width="1"/>
<rect x="234" y="318" width="28" height="20" fill="none" stroke="#7f7b73"/>
<line x1="389" y1="232" x2="342" y2="318" stroke="#7f7b73" stroke-width="1"/>
<rect x="328" y="318" width="28" height="20" fill="none" stroke="#7f7b73"/>
<line x1="389" y1="232" x2="380" y2="318" stroke="#7f7b73" stroke-width="1"/>
<rect x="366" y="318" width="28" height="20" fill="none" stroke="#7f7b73"/>
<line x1="389" y1="232" x2="418" y2="318" stroke="#7f7b73" stroke-width="1"/>
<rect x="404" y="318" width="28" height="20" fill="none" stroke="#7f7b73"/>
<line x1="559" y1="232" x2="512" y2="318" stroke="#7f7b73" stroke-width="1"/>
<rect x="498" y="318" width="28" height="20" fill="none" stroke="#7f7b73"/>
<line x1="559" y1="232" x2="550" y2="318" stroke="#7f7b73" stroke-width="1"/>
<rect x="536" y="318" width="28" height="20" fill="none" stroke="#7f7b73"/>
<line x1="559" y1="232" x2="588" y2="318" stroke="#7f7b73" stroke-width="1"/>
<rect x="574" y="318" width="28" height="20" fill="none" stroke="#7f7b73"/>
<line x1="618" y1="206" x2="654" y2="206" stroke="#2f5d7a" stroke-width="1.5"/>
<circle cx="694" cy="206" r="40" fill="#a33327" fill-opacity=".12" stroke="#a33327" stroke-width="1.5"/>
<line x1="734.0" y1="206.0" x2="741.0" y2="206.0" stroke="#a33327" stroke-width="1" stroke-opacity=".6"/>
<line x1="733.0" y1="214.9" x2="739.8" y2="216.5" stroke="#a33327" stroke-width="1" stroke-opacity=".6"/>
<line x1="730.0" y1="223.4" x2="736.3" y2="226.4" stroke="#a33327" stroke-width="1" stroke-opacity=".6"/>
<line x1="725.3" y1="230.9" x2="730.7" y2="235.3" stroke="#a33327" stroke-width="1" stroke-opacity=".6"/>
<line x1="718.9" y1="237.3" x2="723.3" y2="242.7" stroke="#a33327" stroke-width="1" stroke-opacity=".6"/>
<line x1="711.4" y1="242.0" x2="714.4" y2="248.3" stroke="#a33327" stroke-width="1" stroke-opacity=".6"/>
<line x1="702.9" y1="245.0" x2="704.5" y2="251.8" stroke="#a33327" stroke-width="1" stroke-opacity=".6"/>
<line x1="694.0" y1="246.0" x2="694.0" y2="253.0" stroke="#a33327" stroke-width="1" stroke-opacity=".6"/>
<line x1="685.1" y1="245.0" x2="683.5" y2="251.8" stroke="#a33327" stroke-width="1" stroke-opacity=".6"/>
<line x1="676.6" y1="242.0" x2="673.6" y2="248.3" stroke="#a33327" stroke-width="1" stroke-opacity=".6"/>
<line x1="669.1" y1="237.3" x2="664.7" y2="242.7" stroke="#a33327" stroke-width="1" stroke-opacity=".6"/>
<line x1="662.7" y1="230.9" x2="657.3" y2="235.3" stroke="#a33327" stroke-width="1" stroke-opacity=".6"/>
<line x1="658.0" y1="223.4" x2="651.7" y2="226.4" stroke="#a33327" stroke-width="1" stroke-opacity=".6"/>
<line x1="655.0" y1="214.9" x2="648.2" y2="216.5" stroke="#a33327" stroke-width="1" stroke-opacity=".6"/>
<line x1="654.0" y1="206.0" x2="647.0" y2="206.0" stroke="#a33327" stroke-width="1" stroke-opacity=".6"/>
<line x1="655.0" y1="197.1" x2="648.2" y2="195.5" stroke="#a33327" stroke-width="1" stroke-opacity=".6"/>
<line x1="658.0" y1="188.6" x2="651.7" y2="185.6" stroke="#a33327" stroke-width="1" stroke-opacity=".6"/>
<line x1="662.7" y1="181.1" x2="657.3" y2="176.7" stroke="#a33327" stroke-width="1" stroke-opacity=".6"/>
<line x1="669.1" y1="174.7" x2="664.7" y2="169.3" stroke="#a33327" stroke-width="1" stroke-opacity=".6"/>
<line x1="676.6" y1="170.0" x2="673.6" y2="163.7" stroke="#a33327" stroke-width="1" stroke-opacity=".6"/>
<line x1="685.1" y1="167.0" x2="683.5" y2="160.2" stroke="#a33327" stroke-width="1" stroke-opacity=".6"/>
<line x1="694.0" y1="166.0" x2="694.0" y2="159.0" stroke="#a33327" stroke-width="1" stroke-opacity=".6"/>
<line x1="702.9" y1="167.0" x2="704.5" y2="160.2" stroke="#a33327" stroke-width="1" stroke-opacity=".6"/>
<line x1="711.4" y1="170.0" x2="714.4" y2="163.7" stroke="#a33327" stroke-width="1" stroke-opacity=".6"/>
<line x1="718.9" y1="174.7" x2="723.3" y2="169.3" stroke="#a33327" stroke-width="1" stroke-opacity=".6"/>
<line x1="725.3" y1="181.1" x2="730.7" y2="176.7" stroke="#a33327" stroke-width="1" stroke-opacity=".6"/>
<line x1="730.0" y1="188.6" x2="736.3" y2="185.6" stroke="#a33327" stroke-width="1" stroke-opacity=".6"/>
<line x1="733.0" y1="197.1" x2="739.8" y2="195.5" stroke="#a33327" stroke-width="1" stroke-opacity=".6"/>
<text x="694" y="210" text-anchor="middle" font-family="Courier New, monospace" font-size="10" fill="#171715">SEAL</text>
<g font-family="Courier New, monospace" font-size="10" fill="#514e48"><text x="219" y="172" text-anchor="middle">IDEA</text><text x="389" y="172" text-anchor="middle">CODE</text><text x="559" y="172" text-anchor="middle">RECORD</text><text x="150" y="378">WITNESSES</text></g>
<g font-family="Courier New, monospace" font-size="11" fill="#514e48"><text x="80" y="70">IDEA / CODE / RECORD</text><text x="720" y="560" text-anchor="end">CONTRACT 01</text></g>
</svg>
